<svg width="19" height="20" viewBox="0 0 19 20" fill="none" xmlns="http://www.w3.org/2000/svg">
<path d="M15.39 8.74L7 17.13V20H2C0.89 20 0 19.11 0 18V2C0 1.46957 0.210714 0.960859 0.585786 0.585786C0.960859 0.210714 1.46957 0 2 0H3V7L5.5 5.5L8 7V0H14C14.5304 0 15.0391 0.210714 15.4142 0.585786C15.7893 0.960859 16 1.46957 16 2V8.3C15.78 8.42 15.57 8.56 15.39 8.74ZM9 17.96V20H11.04L17.17 13.88L15.13 11.83L9 17.96ZM18.85 11.47L17.53 10.15C17.33 9.95 17 9.95 16.81 10.15L15.83 11.13L17.87 13.17L18.85 12.19C19.05 12 19.05 11.67 18.85 11.47Z" fill="white"/>
</svg>
