<svg width="30" height="38" viewBox="0 0 30 38" fill="none" xmlns="http://www.w3.org/2000/svg">
<path fill-rule="evenodd" clip-rule="evenodd" d="M0 5C0 3.67392 0.526784 2.40215 1.46447 1.46447C2.40215 0.526784 3.67392 0 5 0H29C29.2652 0 29.5196 0.105357 29.7071 0.292893C29.8946 0.48043 30 0.734784 30 1V31C30 31.2652 29.8946 31.5196 29.7071 31.7071C29.5196 31.8946 29.2652 32 29 32H5C4.20435 32 3.44129 32.3161 2.87868 32.8787C2.31607 33.4413 2 34.2044 2 35V36H29V38H1C0.734784 38 0.48043 37.8946 0.292893 37.7071C0.105357 37.5196 0 37.2652 0 37V5ZM14 21V16H9V14H14V9H16V14H21V16H16V21H14Z" fill="white"/>
</svg>
