<svg width="38" height="38" viewBox="0 0 38 38" fill="none" xmlns="http://www.w3.org/2000/svg">
<path d="M16.625 9.5C16.625 10.7598 16.1246 11.968 15.2338 12.8588C14.343 13.7496 13.1348 14.25 11.875 14.25C10.6152 14.25 9.40704 13.7496 8.51624 12.8588C7.62545 11.968 7.125 10.7598 7.125 9.5C7.125 8.24022 7.62545 7.03204 8.51624 6.14124C9.40704 5.25045 10.6152 4.75 11.875 4.75C13.1348 4.75 14.343 5.25045 15.2338 6.14124C16.1246 7.03204 16.625 8.24022 16.625 9.5ZM7.52083 15.8333C6.78596 15.8333 6.08119 16.1253 5.56156 16.6449C5.04193 17.1645 4.75 17.8693 4.75 18.6042V26.125C4.75 28.0147 5.50067 29.8269 6.83686 31.1631C8.17306 32.4993 9.98533 33.25 11.875 33.25C13.7647 33.25 15.5769 32.4993 16.9131 31.1631C18.2493 29.8269 19 28.0147 19 26.125V18.6042C19 17.8693 18.7081 17.1645 18.1884 16.6449C17.6688 16.1253 16.964 15.8333 16.2292 15.8333H7.52083ZM17.195 33.0188C18.2502 32.2061 19.1045 31.1618 19.692 29.9665C20.2795 28.7712 20.5844 27.4569 20.5833 26.125V18.6042C20.5833 17.5512 20.2097 16.587 19.5874 15.8333H23.3542C24.8837 15.8333 26.125 17.0747 26.125 18.6042V26.125C26.1252 27.2146 25.8755 28.2897 25.3951 29.2676C24.9147 30.2456 24.2164 31.1004 23.3539 31.7662C22.4915 32.432 21.4878 32.8912 20.4201 33.1083C19.3523 33.3255 18.249 33.2949 17.195 33.0188ZM18.2083 9.5C18.2083 11.0833 17.6273 12.5289 16.6678 13.6388C17.3905 14.0455 18.2072 14.2559 19.0365 14.249C19.8658 14.2422 20.6789 14.0183 21.3948 13.5996C22.1108 13.181 22.7046 12.5822 23.1173 11.8628C23.53 11.1435 23.7471 10.3286 23.7471 9.49921C23.7471 8.66986 23.53 7.85497 23.1173 7.13559C22.7046 6.41621 22.1108 5.81742 21.3948 5.39878C20.6789 4.98014 19.8658 4.75625 19.0365 4.74937C18.2072 4.7425 17.3905 4.95288 16.6678 5.35958C17.6273 6.47108 18.2083 7.91825 18.2083 9.5ZM24.32 33.0188C25.3752 32.2061 26.2295 31.1618 26.817 29.9665C27.4045 28.7712 27.7094 27.4569 27.7083 26.125V18.6042C27.7083 17.5512 27.3347 16.587 26.7124 15.8333H30.4792C32.0087 15.8333 33.25 17.0747 33.25 18.6042V26.125C33.2502 27.2146 33.0005 28.2897 32.5201 29.2676C32.0397 30.2456 31.3414 31.1004 30.4789 31.7662C29.6165 32.432 28.6128 32.8912 27.5451 33.1083C26.4773 33.3255 25.374 33.2949 24.32 33.0188ZM25.3333 9.5C25.3333 11.0833 24.7523 12.5289 23.7928 13.6388C24.5155 14.0455 25.3322 14.2559 26.1615 14.249C26.9908 14.2422 27.8039 14.0183 28.5198 13.5996C29.2358 13.181 29.8296 12.5822 30.2423 11.8628C30.655 11.1435 30.8721 10.3286 30.8721 9.49921C30.8721 8.66986 30.655 7.85497 30.2423 7.13559C29.8296 6.41621 29.2358 5.81742 28.5198 5.39878C27.8039 4.98014 26.9908 4.75625 26.1615 4.74937C25.3322 4.7425 24.5155 4.95288 23.7928 5.35958C24.7523 6.47267 25.3333 7.91983 25.3333 9.5Z" fill="white"/>
</svg>
